inDegrees=no
num_controls=7
num_derivatives=13
num_iterations=50
num_multipliers=7
num_parameters=0
num_slacks=7
num_states=26
objective=0.431315
objective_accelerations=0.052835
objective_balance=0.006942
objective_effort=0.033072
objective_height=0.337346
objective_ligament=0.001119
solver_duration=645.830368
status=Solve_Succeeded
success=true
DataType=double
version=3
OpenSimVersion=4.5
endheader
time	/jointset/ground_pelvis/pelvis_tilt/value	/jointset/ground_pelvis/pelvis_tx/value	/jointset/ground_pelvis/pelvis_ty/value	/jointset/hip_l/hip_flexion_l/value	/jointset/hip_l/hip_adduction_l/value	/jointset/hip_l/hip_rotation_l/value	/jointset/back/lumbar_extension/value	/jointset/patellofemoral_l/patellar_flexion_l/value	/jointset/knee_l/knee_flexion_l/value	/jointset/knee_l/knee_adduction_l/value	/jointset/knee_l/knee_rotation_l/value	/jointset/ankle_l/ankle_angle_l/value	/jointset/subtalar_l/subtalar_angle_l/value	/jointset/ground_pelvis/pelvis_tilt/speed	/jointset/ground_pelvis/pelvis_tx/speed	/jointset/ground_pelvis/pelvis_ty/speed	/jointset/hip_l/hip_flexion_l/speed	/jointset/hip_l/hip_adduction_l/speed	/jointset/hip_l/hip_rotation_l/speed	/jointset/back/lumbar_extension/speed	/jointset/patellofemoral_l/patellar_flexion_l/speed	/jointset/knee_l/knee_flexion_l/speed	/jointset/knee_l/knee_adduction_l/speed	/jointset/knee_l/knee_rotation_l/speed	/jointset/ankle_l/ankle_angle_l/speed	/jointset/subtalar_l/subtalar_angle_l/speed	/forceset/tau_hip_flexion_l	/forceset/tau_hip_adduction_l	/forceset/tau_hip_rotation_l	/forceset/tau_knee_flexion_l	/forceset/tau_ankle_angle_l	/forceset/tau_subtalar_angle_l	/forceset/tau_lumbar_extension	lambda_cid13_p0	lambda_cid13_p1	lambda_cid13_p2	lambda_cid13_p3	lambda_cid13_p4	lambda_cid13_p5	lambda_cid14_p0	/jointset/ground_pelvis/pelvis_tilt/accel	/jointset/ground_pelvis/pelvis_tx/accel	/jointset/ground_pelvis/pelvis_ty/accel	/jointset/hip_l/hip_flexion_l/accel	/jointset/hip_l/hip_adduction_l/accel	/jointset/hip_l/hip_rotation_l/accel	/jointset/back/lumbar_extension/accel	/jointset/patellofemoral_l/patellar_flexion_l/accel	/jointset/knee_l/knee_flexion_l/accel	/jointset/knee_l/knee_adduction_l/accel	/jointset/knee_l/knee_rotation_l/accel	/jointset/ankle_l/ankle_angle_l/accel	/jointset/subtalar_l/subtalar_angle_l/accel	gamma_cid13_p0	gamma_cid13_p1	gamma_cid13_p2	gamma_cid13_p3	gamma_cid13_p4	gamma_cid13_p5	gamma_cid14_p0
0.5	-0.3440593268709525	-0.0329537644009635	0.7608159085418089	1.19354852487888	-0.3044122463285529	0.0136213588768823	-0.3223036062301026	0.8330601787879994	0.833060178787998	-0.1709550283467594	0.1686479636463197	0.1659024653551362	-0.01852575854079713	-0.4598566305291933	-0.1704935993759137	-0.535428123105838	2.21338003494676	0.01785818917716286	0.7326545737246785	-0.6291882392354652	2.172265628783804	2.172265628783915	-0.008635516459846374	0.03239617269817021	0.5470267172665044	0.1096124333703916	-0.1936982764507673	0.06750386471990025	-0.02599594032006719	-0.2559682478661352	0.106893322897145	-0.003486695127954502	0.1902530146520842	-4.811138213516467	1.708815094449554	0.06515196529043549	-1.579395684623295	-603.4609416818249	-17.28259210013416	-19.52865668725936	0.5747165230029582	0.5871585206603278	-0.4529444904764796	-1.410137057596709	0.6960988745189967	-0.3577897648766469	1.70457743832518	-1.426412006300244	-1.426412006300275	-0.04383141337409061	-0.05601788874796871	-0.6301681030044659	0.7146315637426705	-4.461398729818524e-07	-6.066938433078789e-07	2.702367031630191e-06	2.810320881441038e-07	-5.296518710210899e-07	-2.630737303528807e-07	-4.419634940434164e-07
0.51	-0.3486280767778286	-0.03462916492546056	0.7554401698272043	1.215608031400087	-0.3042002868261069	0.02093106279078204	-0.3285099738060238	0.8547079465249841	0.8547079465251046	-0.1710469158610048	0.1689688533631433	0.1713398388016521	-0.01739557726166226	-0.453829543844433	-0.1645753185190424	-0.5396009641123434	2.198222784155985	0.02452006660576146	0.7291931357797762	-0.6120125794250917	2.156989254714825	2.156989254714819	-0.009702753150226232	0.03176863502622548	0.5403580729605295	0.1164143387526686	-0.2004195469742721	0.06761276376808069	-0.0259790455329366	-0.2587409421615947	0.1049397546601607	-0.002959969718076915	0.1958268128183199	-5.684177063610814	1.813183764699908	-0.1573916154241348	-1.191973506277358	-608.225489759192	-17.20193859171124	-18.18810419437835	0.6262386927883709	0.5958959685842745	-0.3817568390605545	-1.613341567582568	0.6488470933077164	-0.3546646694788938	1.73496473025504	-1.622964003509165	-1.622964003526719	-0.1322890995432634	-0.06861822214635975	-0.6986846268832639	0.6613274828912693	-4.113128395068641e-07	-4.843583898184563e-07	2.58653312298155e-06	2.772900122987341e-07	-4.89691161423571e-07	-1.597643334804589e-07	-4.145243626078785e-07
0.52	-0.3531346490275348	-0.03624503602131203	0.7500262421158713	1.237507000917823	-0.3039221855661305	0.02820328355319431	-0.3345424038882709	0.8761940077420336	0.8761940077422441	-0.1711482996026762	0.169282968400107	0.1767078313986106	-0.01619770543722058	-0.4474210990966686	-0.1585877136467954	-0.54306592245167	2.181272634254627	0.03108654068548523	0.7251579434275924	-0.5944007405002697	2.139924324793359	2.139924324793237	-0.01053476194754749	0.03104123672513623	0.5331505473549947	0.1231505424317926	-0.2071408174978907	0.06772166281619624	-0.02596215074559473	-0.2615136364570924	0.1029861864231641	-0.002433244308277078	0.2014006109844552	-6.563998429590803	1.914606913007658	-0.3747427030969028	-0.8135102704298078	-613.0941730056528	-17.21183542952922	-16.84880556292402	0.6509881356031499	0.6010233237359082	-0.3113679570406406	-1.768716879713528	0.6770182047440058	-0.4725406463328456	1.791813261214537	-1.784123176797471	-1.784123176797474	0.003214165237437192	-0.07599001457671184	-0.7379443629158493	0.701491223112085	-3.80550378147395e-07	-3.261700248462963e-07	2.48551942997164e-06	2.814271439517698e-07	-4.558422666634115e-07	-4.930146672781666e-08	-3.864012643150772e-07
0.53	-0.3575754608179125	-0.03780073988575471	0.744581218073804	1.25922788235836	-0.3035788447852095	0.03543273385217269	-0.3403966232822068	0.8975006831942536	0.8975006831943388	-0.1712569326207034	0.169588990894282	0.1820012104824827	-0.01493273693082087	-0.4406919223991815	-0.1525460789691744	-0.5458180107309994	2.162623884976838	0.03755224199876765	0.7206713259651586	-0.5763870274799813	2.121123644347231	2.121123644347279	-0.01119296920973612	0.03014030295314773	0.5254434040716173	0.1298153513042769	-0.2134740135613014	0.06756240899492634	-0.0259096627857716	-0.2646678494009358	0.1016261667707952	-0.002128009977777755	0.2066551384703179	-7.256442374627547	2.085706356812819	-0.6103899715090269	-0.5410324000151984	-617.8862128810265	-17.15035561032709	-15.5159652592932	0.6912534792262449	0.606837301889174	-0.239085591174367	-1.954960052676231	0.6266028620148424	-0.4461614817291944	1.814566942804274	-1.97103434834934	-1.971034348323907	-0.1004816047323715	-0.1010752348024538	-0.7993572724210061	0.6445574671673634	-3.47254174734211e-07	-2.345129078744399e-07	2.356157091007222e-06	2.745963218337907e-07	-4.222079958882907e-07	3.631844191899e-08	-3.597486063505768e-07
0.54	-0.3619475066328283	-0.03929580665099835	0.7391122818833855	1.280753875085935	-0.3031717956376881	0.04261543013942756	-0.3460690222218682	0.9186107530680583	0.918610753067999	-0.1713721763978972	0.1698852180154984	0.1872150665412466	-0.01360200398612642	-0.4336679040055295	-0.1464602938069892	-0.5478483521220556	2.142294891664466	0.04382821400785002	0.7158071410814956	-0.5580366496449732	2.100603209107956	2.100603209108174	-0.01185691378334413	0.0290821621294556	0.5172459423333579	0.1363034300907986	-0.2198072096248144	0.06740315517362157	-0.02585717482561975	-0.2678220623448173	0.1002661471184267	-0.001822775647320391	0.2119096659560822	-7.955367299733629	2.254699723129862	-0.8419978168522523	-0.2799964495202228	-622.7773985909329	-17.16925317902583	-14.19397902150106	0.7099564748354995	0.6098534206492021	-0.1670185793859499	-2.104765686630071	0.639072343903981	-0.5480541305786119	1.859146224158146	-2.128074135426934	-2.128074135426935	0.002066702953377866	-0.1074314249172849	-0.8360080538916684	0.6661452059195976	-3.111546822403209e-07	-2.164648312433458e-07	2.195430292688879e-06	2.556307423521355e-07	-3.888111814370423e-07	9.445252457636123e-08	-3.347228185365372e-07
0.55	-0.3662478863463025	-0.04072992645435845	0.733626655181862	1.30206845057323	-0.3027029189412411	0.04974631334115919	-0.3515563884989558	0.939507360061143	0.9395073600611498	-0.1714930817379151	0.1701710776261232	0.1923445168392167	-0.01220728951517695	-0.4263590258636402	-0.1403688661582144	-0.5491555662960259	2.120356195383578	0.04990302816991371	0.7102013291170769	-0.5393990206609107	2.078453710400562	2.078453710400572	-0.0122598866401979	0.02815241087339205	0.5085578320094709	0.1425903902735965	-0.2261619850333665	0.06716110546957553	-0.02571864423401291	-0.270594686302851	0.09822365718584336	-0.001528531846065978	0.2170873647830909	-8.871172912930531	2.468523445467375	-1.083133876191153	0.2610629629177942	-627.5269383904936	-17.13606156778431	-12.88595297004672	0.7486839077987882	0.6080566013191331	-0.0944336721728123	-2.278054278421258	0.584780554799667	-0.5923493193016881	1.871709001622014	-2.297995390444713	-2.297995390475954	-0.05183129542901362	-0.07677578064772649	-0.8981325468813161	0.6023949981101591	-2.763307874871118e-07	-1.342450025991083e-07	2.046870845656717e-06	2.43600137230967e-07	-3.526652761045621e-07	1.600642287233224e-07	-3.059883095854595e-07
0.5600000000000001	-0.3704737111935661	-0.0421032781483654	0.728131584171446	1.323155712561783	-0.3021746751826979	0.05681603750527472	-0.3568562509329862	0.9601745505367616	0.9601745505368062	-0.1716160872095644	0.1704494339632534	0.1973845020288989	-0.0107512207276698	-0.4187569307644518	-0.1343066719363606	-0.5497372139007265	2.096832191918564	0.05570162642967939	0.7035753335555262	-0.5205358810331884	2.054719905611215	2.054719905611017	-0.01227694011402283	0.02758150742945506	0.4993529206758305	0.1485742934024141	-0.2325167604420134	0.06691905576550854	-0.02558011364236232	-0.2733673102608872	0.09618116725326788	-0.001234288044834489	0.2222650636100048	-9.793243131513002	2.680393407858046	-1.320472067626347	0.793676496158395	-632.368361632579	-17.17587690856872	-11.5946571201136	0.7685998662947522	0.6040067352654117	-0.02190526553192681	-2.421827123455343	0.5838291634443521	-0.7520908500049772	1.904248352889784	-2.444935351817424	-2.444935351817416	0.07925057955899055	-0.03566186249182939	-0.9393682558417735	0.6055337951235926	-2.4303761002272e-07	2.49809284608988e-08	1.912912220167971e-06	2.398915013423822e-07	-3.132204617146038e-07	2.346490786577913e-07	-2.728033352699363e-07
0.5700000000000001	-0.3746222524540281	-0.04341616112355262	0.7226343219183583	1.344000160108343	-0.3015894598784623	0.06381596145373801	-0.3619664702822714	0.9805966640568281	0.9805966640568784	-0.1717376572030135	0.1707223633042302	0.2023302100987084	-0.009236364740544425	-0.4109132969313085	-0.1282746290688478	-0.5495926908384995	2.07180786487244	0.06131099210723524	0.6963920686225461	-0.5014918077208445	2.029446565713898	2.029446565713711	-0.01205077610435923	0.02694316326401221	0.4897293731930363	0.1543667029897647	-0.2383012832181603	0.06640454135616597	-0.02540360716377462	-0.2766894990348162	0.0951194001329364	-0.001149617616064986	0.2269975332159863	-10.39556141501852	2.932360395956642	-1.569990484031108	1.065445983589414	-637.0429964943233	-17.20368118063503	-10.32236015347702	0.797933965784058	0.6021447271389527	0.05095479237416253	-2.580176155052965	0.5446448779995724	-0.7042563967402338	1.906913985231648	-2.606917405741763	-2.606917405740398	-0.007712785169157236	-0.0874721664191391	-0.9827154264595444	0.5613294956963938	-2.280373473230593e-07	2.260976900226049e-08	1.81932906575352e-06	2.313588348652283e-07	-3.000292209984301e-07	2.528184557065939e-07	-2.602988422849473e-07
0.58	-0.3786912196113621	-0.04466885533713597	0.717142169635949	1.364586876252456	-0.3009491199958474	0.07074349033653388	-0.3668857634654701	1.000758367358529	1.000758367358561	-0.1718573679756968	0.1709869989089886	0.2071779092072975	-0.007664537666514879	-0.4028421101397937	-0.1222689196155894	-0.5487152197652381	2.045285911431827	0.06672654210833895	0.6890963204177353	-0.4823506478155085	2.00263786193447	2.002637861934292	-0.0119050959682609	0.02592276018462409	0.4797511284318012	0.1599685107833491	-0.2440858059944007	0.06589002694682114	-0.0252271006852777	-0.2800116878087337	0.09405763301261946	-0.001064947187294933	0.2317300028218718	-11.00492965598336	3.183504324596519	-1.817026228754028	1.330022482614196	-641.8194033132611	-17.29442516051548	-9.070895351256329	0.8141104579684832	0.5987400524148782	0.1246843366750289	-2.721352402353375	0.5450660281539004	-0.7745875043710764	1.923665671487882	-2.752008128239784	-2.752008128239784	0.06315380484580399	-0.1120736452807552	-1.010307711529364	0.5674134363703998	-2.368604154797921e-07	-1.902134153178603e-07	1.778327920180011e-06	2.165437099471477e-07	-3.210286808806724e-07	1.975165192298807e-07	-2.747270691722809e-07
